<?xml version="1.0" encoding="UTF-8"?>
<!-- Generator: https://ezgif.com/png-to-svg -->
<svg version="1.1" viewBox="0 0 1000 1116" xmlns="http://www.w3.org/2000/svg" width="1000" height="1116">
<path d="M0 0 C7.77 3.94 13.61 10.73 19.58 16.93 C21.43 18.78 23.29 20.62 25.15 22.45 C29.18 26.44 33.17 30.46 37.13 34.51 C43.02 40.53 48.98 46.49 54.94 52.44 C64.98 62.45 74.97 72.51 84.92 82.6 C94.78 92.58 104.65 102.54 114.56 112.47 C115.18 113.09 115.79 113.71 116.43 114.35 C119.56 117.49 122.7 120.63 125.83 123.77 C148 145.98 170.12 168.25 192.21 190.55 C213.67 212.21 235.15 233.84 256.66 255.45 C257.32 256.11 257.98 256.78 258.67 257.47 C265.33 264.16 271.99 270.85 278.66 277.54 C292.23 291.17 305.8 304.8 319.37 318.44 C319.99 319.07 320.62 319.69 321.26 320.34 C362.89 362.17 404.45 404.08 446 446 C448.97 444.67 451.03 443.21 453.32 440.9 C453.96 440.26 454.6 439.62 455.26 438.96 C455.95 438.26 456.65 437.55 457.36 436.82 C458.11 436.07 458.86 435.32 459.63 434.54 C462.15 432 464.67 429.45 467.19 426.9 C469.01 425.07 470.83 423.24 472.65 421.4 C476.61 417.41 480.58 413.41 484.54 409.41 C490.98 402.9 497.43 396.39 503.88 389.89 C506.14 387.62 508.39 385.35 510.65 383.07 C511.21 382.5 511.78 381.93 512.36 381.34 C516.48 377.19 520.6 373.04 524.71 368.89 C541.94 351.52 559.18 334.16 576.43 316.82 C577.69 315.56 578.95 314.29 580.21 313.03 C590.48 302.7 600.75 292.38 611.02 282.06 C620.28 272.76 629.53 263.46 638.79 254.15 C639.45 253.49 640.11 252.83 640.79 252.14 C662.17 230.65 683.52 209.12 704.85 187.58 C726.79 165.43 748.75 143.32 770.77 121.25 C773.88 118.13 776.99 115.01 780.1 111.89 C780.71 111.28 781.32 110.66 781.95 110.03 C791.8 100.16 801.6 90.25 811.39 80.32 C821.23 70.34 831.12 60.4 841.04 50.5 C846.93 44.62 852.79 38.71 858.61 32.76 C862.96 28.31 867.37 23.92 871.81 19.55 C873.59 17.78 875.35 15.99 877.09 14.18 C891.43 -0.71 891.43 -0.71 902.85 -1.33 C912.32 -1.26 918.77 -0.01 925.75 6.79 C927.05 8.23 927.05 8.23 928.38 9.69 C929.33 10.56 930.28 11.43 931.25 12.33 C937.71 19.02 939.39 25.26 939.53 34.35 C938.74 47.19 928.65 55.01 919.83 63.3 C917.27 65.73 914.77 68.22 912.26 70.7 C907.52 75.38 902.73 80 897.92 84.6 C892.43 89.84 887.01 95.15 881.59 100.46 C870.46 111.38 859.26 122.21 848 133 C849.46 136.37 851.32 138.57 853.92 141.15 C854.74 141.97 855.56 142.79 856.4 143.63 C857.75 144.97 857.75 144.97 859.13 146.33 C860.09 147.28 861.04 148.23 862 149.19 C864.06 151.24 866.11 153.28 868.18 155.33 C871.43 158.56 874.68 161.79 877.93 165.03 C884.82 171.9 891.72 178.76 898.62 185.62 C906.08 193.04 913.54 200.45 920.99 207.88 C924.22 211.1 927.45 214.32 930.69 217.53 C932.7 219.53 934.71 221.53 936.72 223.53 C938.1 224.9 939.48 226.27 940.87 227.64 C941.68 228.45 942.49 229.27 943.33 230.1 C944.04 230.81 944.76 231.52 945.49 232.25 C947 234 947 234 947 236 C912.35 236 877.7 236 842 236 C842 270.98 842 305.96 842 342 C834.13 335.25 834.13 335.25 830.59 331.71 C829.79 330.91 828.99 330.11 828.16 329.29 C827.31 328.43 826.46 327.57 825.58 326.69 C824.66 325.77 823.74 324.85 822.8 323.91 C820.3 321.41 817.8 318.91 815.31 316.41 C812.69 313.79 810.08 311.17 807.46 308.55 C802.52 303.61 797.57 298.65 792.63 293.7 C787 288.06 781.37 282.42 775.73 276.78 C764.15 265.19 752.57 253.6 741 242 C737.55 243.49 735.31 245.44 732.67 248.09 C731.8 248.95 730.94 249.81 730.05 250.7 C729.09 251.66 728.13 252.62 727.18 253.58 C726.16 254.6 725.14 255.61 724.13 256.63 C721.33 259.42 718.53 262.23 715.74 265.03 C712.73 268.05 709.71 271.07 706.69 274.08 C701.46 279.31 696.24 284.54 691.02 289.77 C683.47 297.33 675.92 304.89 668.36 312.45 C656.1 324.72 643.85 336.98 631.6 349.25 C619.69 361.17 607.79 373.09 595.88 385.01 C595.15 385.74 594.42 386.48 593.66 387.23 C589.98 390.92 586.3 394.6 582.62 398.28 C552.07 428.85 521.53 459.42 491 490 C491.95 491.12 492.91 492.24 493.86 493.35 C494.39 493.98 494.93 494.6 495.47 495.24 C497.32 497.37 499.26 499.38 501.26 501.37 C502.04 502.16 502.82 502.94 503.63 503.74 C504.86 504.96 504.86 504.96 506.12 506.21 C506.97 507.07 507.83 507.93 508.71 508.81 C511.43 511.52 514.15 514.23 516.88 516.94 C518.73 518.78 520.58 520.63 522.43 522.48 C526.95 526.99 531.47 531.5 536 536 C539.61 534.33 541.5 532.5 544.06 529.43 C558.35 513.08 558.35 513.08 567.39 511.43 C576.52 511 582.96 515.4 589.6 521.2 C597.25 528.26 605.29 536.64 605.81 547.56 C605.43 558.06 597.62 565.05 590.41 571.8 C587.34 574.61 584.2 577.33 581 580 C585.56 585.47 590.41 590.54 595.46 595.56 C596.25 596.35 597.04 597.14 597.86 597.95 C600.36 600.45 602.87 602.94 605.38 605.44 C607.08 607.14 608.79 608.84 610.5 610.54 C614.66 614.7 618.83 618.85 623 623 C624.43 622.21 625.87 621.42 627.3 620.62 C628.1 620.18 628.9 619.74 629.72 619.28 C632.57 617.68 635.31 615.95 638.06 614.19 C658.83 601.38 681.15 593 705 588 C705.83 587.82 706.67 587.64 707.53 587.46 C757.86 577.13 813.73 589.45 856.36 617.5 C868.65 625.83 879.52 635.5 890 646 C890.66 646.61 891.32 647.23 892 647.86 C924.15 678.25 945.85 728.14 947.18 772.18 C947.2 773.67 947.22 775.16 947.24 776.65 C947.25 777.46 947.26 778.27 947.27 779.1 C947.81 835.54 930.91 887.2 891.41 928.52 C890.48 929.5 889.54 930.49 888.62 931.48 C855.66 966.74 804.83 989.32 756.68 991.12 C696.55 992.43 644.72 973.61 600.43 932.62 C594.8 927.14 589.87 921.16 585 915 C584.21 914.04 583.41 913.07 582.6 912.08 C549.71 871.14 536.55 816.31 541.77 764.65 C544.83 738.88 552.68 714.9 564.5 691.88 C565.02 690.86 565.54 689.84 566.08 688.79 C569.4 682.5 573.13 676.93 577.58 671.38 C579.2 669.19 579.2 669.19 578.83 667.11 C577.75 664.36 576.23 662.87 574.12 660.78 C573.3 659.96 572.48 659.14 571.64 658.3 C570.74 657.42 569.85 656.54 568.93 655.64 C568.02 654.74 567.12 653.83 566.18 652.9 C563.77 650.5 561.35 648.11 558.93 645.72 C556.45 643.28 553.99 640.83 551.53 638.38 C546.69 633.58 541.85 628.79 537 624 C533.39 625.67 531.5 627.5 528.94 630.57 C514.64 646.93 514.64 646.93 505.56 648.52 C495.93 648.92 489.11 644.07 482.24 637.76 C475.33 631.05 468.76 623.52 468.25 613.5 C468.56 603.61 475.27 597.17 482 590.69 C485.57 587.34 489.24 584.14 493 581 C488.25 575.28 483.15 570.02 477.88 564.79 C476.6 563.5 476.6 563.5 475.29 562.19 C472.57 559.48 469.85 556.77 467.12 554.06 C465.27 552.22 463.42 550.37 461.57 548.52 C457.05 544.01 452.53 539.5 448 535 C444.51 536.5 442.27 538.49 439.6 541.17 C438.31 542.47 438.31 542.47 436.99 543.78 C436.07 544.71 435.15 545.64 434.2 546.6 C433.25 547.56 432.29 548.52 431.33 549.49 C428.81 552.01 426.3 554.54 423.79 557.07 C421.23 559.65 418.66 562.23 416.09 564.81 C411.05 569.87 406.03 574.93 401 580 C404.15 583.8 407.19 587.39 411.09 590.45 C417.8 596.06 423.77 601.55 425.23 610.51 C425.74 619.92 422.24 626.34 416.11 633.32 C409.37 640.56 401.34 648.18 391 648.75 C380.77 648.41 373.83 640.41 367.26 633.41 C364.43 630.34 361.69 627.19 359 624 C355.67 625.46 353.44 627.29 350.86 629.84 C350.05 630.62 349.25 631.41 348.42 632.22 C347.57 633.07 346.71 633.93 345.82 634.8 C344.94 635.68 344.06 636.56 343.14 637.46 C341.28 639.31 339.41 641.16 337.55 643.02 C335.17 645.4 332.76 647.77 330.36 650.13 C328.06 652.38 325.79 654.66 323.51 656.93 C322.64 657.78 321.78 658.63 320.88 659.5 C320.09 660.29 319.31 661.09 318.49 661.91 C317.79 662.6 317.09 663.3 316.37 664.01 C314.77 665.89 314.77 665.89 315.18 668.09 C316.39 670.91 318.08 673.28 319.81 675.81 C349.69 721.12 359.65 775.76 349.43 828.97 C338.46 882.3 306.13 928.87 261 959 C255.17 962.66 249.13 965.88 243 969 C242.32 969.35 241.65 969.71 240.95 970.07 C222.84 979.44 203.11 985.72 183 989 C181.98 989.17 181.98 989.17 180.94 989.35 C137.36 996.43 91.66 987.87 53 967 C52.1 966.52 52.1 966.52 51.18 966.03 C25.27 952.12 2.16 931.87 -15 908 C-15.41 907.43 -15.83 906.86 -16.25 906.27 C-31.96 884.43 -43.07 859.22 -49 833 C-49.29 831.73 -49.29 831.73 -49.59 830.43 C-60.92 779.12 -50.37 722.98 -22.51 678.63 C-14.28 666.11 -4.83 654.36 6 644 C7.17 642.83 7.17 642.83 8.37 641.63 C46.68 603.38 98.12 584.77 151.74 584.75 C164.39 584.77 176.59 585.35 189 588 C189.92 588.19 190.84 588.38 191.79 588.57 C220.11 594.5 246.42 606.27 270 623 C275.47 618.44 280.54 613.59 285.56 608.54 C286.35 607.75 287.14 606.96 287.95 606.14 C290.45 603.64 292.94 601.13 295.44 598.62 C297.14 596.92 298.84 595.21 300.54 593.5 C304.7 589.34 308.85 585.17 313 581 C309.85 577.2 306.81 573.61 302.91 570.55 C296.24 564.97 290.24 559.45 288.72 550.54 C288.15 540.93 292.06 534.33 298.25 527.32 C305.13 519.95 313.48 511.73 324.06 511.19 C334.23 511.58 341.2 519.63 347.74 526.59 C350.57 529.66 353.31 532.81 356 536 C359.49 534.5 361.73 532.51 364.4 529.83 C365.69 528.53 365.69 528.53 367.01 527.22 C367.93 526.29 368.85 525.36 369.8 524.4 C370.75 523.44 371.71 522.48 372.67 521.51 C375.19 518.99 377.7 516.46 380.21 513.93 C382.77 511.35 385.34 508.77 387.91 506.19 C392.95 501.13 397.97 496.07 403 491 C398.02 484.99 392.62 479.48 387.09 473.97 C386.09 472.97 385.08 471.96 384.08 470.96 C381.34 468.21 378.59 465.47 375.84 462.73 C372.88 459.77 369.91 456.8 366.95 453.83 C361.82 448.7 356.68 443.57 351.55 438.44 C344.12 431.03 336.7 423.61 329.28 416.19 C317.24 404.15 305.2 392.11 293.15 380.08 C281.46 368.39 269.76 356.7 258.06 345.01 C257.34 344.29 256.62 343.57 255.88 342.82 C252.26 339.21 248.64 335.59 245.02 331.97 C215.02 301.98 185.01 271.99 155 242 C151.65 243.59 149.43 245.32 146.81 247.96 C145.98 248.79 145.15 249.62 144.29 250.47 C143.39 251.38 142.49 252.29 141.57 253.22 C140.6 254.19 139.64 255.16 138.67 256.12 C136.6 258.2 134.53 260.28 132.46 262.36 C129.19 265.65 125.92 268.93 122.64 272.22 C117.46 277.4 112.29 282.6 107.12 287.79 C97.85 297.11 88.58 306.41 79.3 315.72 C76.04 318.98 72.78 322.25 69.53 325.53 C67.51 327.56 65.49 329.58 63.47 331.61 C62.08 333.01 60.69 334.4 59.3 335.8 C58.48 336.62 57.66 337.45 56.81 338.29 C56.1 339.01 55.38 339.73 54.64 340.48 C53 342 53 342 52 342 C52 307.02 52 272.04 52 236 C17.35 236 -17.3 236 -53 236 C-51.19 232.38 -49.86 230.62 -47.08 227.84 C-46.26 227.01 -45.44 226.19 -44.6 225.35 C-43.25 224.01 -43.25 224.01 -41.87 222.64 C-40.91 221.69 -39.96 220.73 -39 219.77 C-36.41 217.18 -33.81 214.59 -31.21 212.01 C-28.49 209.3 -25.78 206.59 -23.07 203.88 C-17.94 198.75 -12.8 193.63 -7.65 188.51 C-1.8 182.68 4.05 176.84 9.9 171 C21.92 159 33.96 147 46 135 C44.59 131.8 42.94 129.73 40.42 127.32 C39.68 126.6 38.93 125.89 38.17 125.15 C37.35 124.38 36.54 123.6 35.69 122.8 C33.92 121.09 32.14 119.38 30.36 117.67 C28.94 116.31 28.94 116.31 27.49 114.92 C24.53 112.08 21.58 109.21 18.64 106.35 C18.15 105.86 17.65 105.38 17.14 104.88 C15.09 102.88 13.03 100.87 10.98 98.87 C5.18 93.2 -0.64 87.56 -6.51 81.96 C-11.18 77.51 -15.82 73.02 -20.41 68.49 C-22.83 66.09 -25.27 63.72 -27.76 61.4 C-44.83 45.33 -44.83 45.33 -45.49 34.39 C-45.36 25.27 -43.73 19.04 -37.25 12.33 C-36.3 11.46 -35.35 10.59 -34.38 9.69 C-33.51 8.73 -32.65 7.78 -31.75 6.79 C-23.04 -1.69 -11.59 -3.08 0 0 Z M97 638 C96.37 638.61 95.74 639.23 95.1 639.86 C81.47 654.29 76.41 673.14 76.71 692.64 C77.11 701.71 80.09 710.47 83 719 C82.01 719.66 81.02 720.32 80 721 C77.72 720.39 77.72 720.39 75.06 719.25 C57.51 712.42 38 713.74 20.69 720.69 C1.69 729.47 -11.41 744.71 -19 764 C-25.31 781.94 -24.26 800.79 -16.44 818.16 C-6.53 837.7 8.69 850.73 29.14 858.14 C44.75 862.5 61.82 862.21 76.7 855.61 C79 855 79 855 81.3 855.89 C82.14 856.44 82.14 856.44 83 857 C82.48 858.63 82.48 858.63 81.94 860.29 C81.48 861.73 81.02 863.18 80.56 864.62 C80.33 865.34 80.1 866.05 79.87 866.79 C74.46 883.86 76.1 902.72 83.43 919.03 C94.33 939.66 111.04 952.13 133 959 C152.34 963.45 172.52 959.51 189.2 949.18 C203.38 939.89 213.62 927.15 219 911 C219.48 909.73 219.48 909.73 219.96 908.43 C224.76 893.34 223.27 875.68 218 861 C217.64 859.34 217.29 857.67 217 856 C220.97 854.68 223.37 856.02 227.12 857.38 C245.06 863.37 263.76 861.7 281 854 C301.09 843.39 314.25 827.07 320.94 805.44 C325.41 784.76 321.21 764.66 310 747 C298.72 730.58 281.77 719.53 262.19 715.75 C246.69 713.53 232.75 716.21 218 721 C216.56 717.19 217.51 714.81 218.88 711.06 C224.93 694.31 223.75 674.01 216.33 657.92 C207.72 640.15 193.58 626.18 174.83 619.43 C146.37 609.93 118.36 617 97 638 Z M699 631 C698.17 631.66 697.34 632.31 696.48 632.99 C683.48 643.91 673.86 659.96 672 677 C671.02 689.97 671.26 701.75 676 713.95 C676.98 716.95 677.18 718.14 676 721 C675.44 720.82 674.88 720.64 674.3 720.45 C652.57 713.64 631.85 712.43 611 723 C591.99 733.48 579.53 749.74 573.12 770.44 C568.6 790.67 572.86 809.41 583 827 C584.83 829.84 586.81 832.43 589 835 C589.43 835.58 589.87 836.15 590.32 836.75 C600.44 849.7 617.85 858.26 633.97 860.24 C647.23 861.65 658.97 860.47 671.54 855.71 C674 855 674 855 677 856 C676.53 858.68 675.95 861.14 675.03 863.71 C668.59 882.06 670.63 902.65 678.62 920.12 C688.71 938.91 704.66 952.06 725 958.5 C745.84 963.41 765.71 959.77 784 949 C787.54 946.54 790.79 943.88 794 941 C794.61 940.48 795.22 939.96 795.85 939.43 C809.22 927.28 816.03 908.99 817.25 891.32 C817.74 879.18 814.92 868.47 811 857 C812.7 855.89 812.7 855.89 815 855 C817.3 855.61 817.3 855.61 819.88 856.75 C836.34 863.18 854.57 861.89 871 856 C879.09 852.37 886.32 847.82 893 842 C893.59 841.5 894.18 841.01 894.79 840.5 C908.49 828.01 915.84 808.9 917.25 790.8 C917.66 771.17 910.58 752.38 897.1 738.14 C895.74 736.75 894.37 735.37 893 734 C892.39 733.39 891.78 732.78 891.16 732.16 C877.41 719.48 858.86 714.63 840.57 714.78 C831.09 715.37 821.89 717.72 813 721 C812.34 720.01 811.68 719.02 811 718 C811.66 715.47 812.39 713.18 813.31 710.75 C819.79 693.33 818.11 673.75 810.5 656.9 C801.23 638.95 787.03 626.4 768.24 619.03 C744.07 611.33 719.01 614.96 699 631 Z " fill="#F7F5ED" transform="translate(53,124)"/>
<path d="M0 0 C2.69 1.4 4.5 3.2 6.64 5.34 C7.32 6.02 7.32 6.02 8.02 6.72 C9.55 8.24 11.07 9.78 12.58 11.31 C13.68 12.41 14.77 13.5 15.87 14.59 C18.84 17.56 21.8 20.54 24.76 23.52 C27.86 26.64 30.96 29.74 34.06 32.85 C39.94 38.73 45.8 44.62 51.67 50.52 C58.34 57.23 65.03 63.93 71.71 70.63 C85.46 84.41 99.21 98.21 112.94 112.01 C116.55 110.48 118.83 108.36 121.57 105.59 C122.5 104.66 123.42 103.73 124.37 102.77 C125.39 101.73 126.41 100.7 127.43 99.67 C128.51 98.58 129.58 97.5 130.66 96.41 C132.98 94.08 135.3 91.74 137.61 89.4 C141.27 85.7 144.94 82.01 148.61 78.32 C159.04 67.83 169.46 57.33 179.86 46.82 C185.61 41.01 191.37 35.22 197.13 29.43 C200.79 25.76 204.43 22.08 208.06 18.4 C210.32 16.11 212.59 13.84 214.86 11.56 C215.91 10.5 216.96 9.44 218.01 8.37 C219.43 6.92 220.87 5.49 222.31 4.05 C223.51 2.84 223.51 2.84 224.74 1.6 C226.94 0.01 226.94 0.01 228.88 0.01 C254.02 12.21 283.94 43.16 293.26 69.28 C301.76 95.25 302.57 123.03 302.78 150.11 C302.82 153.4 302.89 156.69 302.99 159.98 C304.78 227.18 288.45 273.12 242.28 322.38 C231.35 333.87 219.91 344.81 208.32 355.63 C207.36 356.53 206.4 357.43 205.42 358.35 C191.56 371.33 177.43 383.94 162.96 396.24 C162.08 396.99 161.2 397.75 160.28 398.53 C155.21 402.85 150.09 407.1 144.88 411.25 C143.32 412.49 141.78 413.76 140.25 415.04 C131.12 422.65 123.24 426.75 111.11 426.41 C100.4 425.4 93.4 419.88 85.39 413.16 C83.77 411.86 82.15 410.57 80.53 409.28 C75.25 405.03 70.08 400.64 64.92 396.24 C64.02 395.48 63.13 394.72 62.21 393.94 C47.65 381.54 33.52 368.71 19.57 355.63 C18.61 354.74 17.66 353.85 16.67 352.93 C-34.88 304.71 -72.47 259.74 -75.27 186.86 C-75.55 176.81 -75.35 166.78 -75.07 156.74 C-75 153.46 -74.96 150.19 -74.94 146.92 C-74.61 101.68 -70.33 62.57 -37.11 29.42 C-6.89 0.03 -6.89 0.03 0 0 Z M-0.06 44.01 C-3.06 73.92 -5.06 103.84 -6.18 133.88 C-6.23 134.98 -6.27 136.08 -6.31 137.22 C-8.24 188.45 -9.65 236.31 26.58 276.02 C33.57 283.51 41.11 290.34 48.88 297.01 C49.75 297.76 49.75 297.76 50.65 298.54 C73.31 320.58 73.31 320.58 98.94 334.01 C101.95 304.1 103.94 274.17 105.07 244.13 C105.11 243.03 105.15 241.93 105.19 240.8 C107.12 189.57 108.53 141.71 72.3 102 C65.31 94.51 57.77 87.68 50 81.01 C49.42 80.5 48.83 80 48.23 79.48 C25.57 57.44 25.57 57.44 -0.06 44.01 Z M177.88 81.01 C177.3 81.51 176.71 82.01 176.11 82.52 C144.99 109.33 126.29 136.47 123.1 178.2 C121.69 200.19 121.97 222.14 122.82 244.13 C122.86 245.24 122.9 246.34 122.94 247.48 C124.05 276.4 126.05 305.22 128.94 334.01 C129.9 333.14 130.87 332.28 131.86 331.39 C135.28 328.46 138.87 325.99 142.65 323.56 C156.65 314.54 169.71 304.42 182.38 293.63 C182.92 293.17 183.46 292.71 184.02 292.24 C213.02 267.55 229.95 241.98 233.16 203.4 C234.82 180.37 234.52 157.31 233.69 134.26 C233.65 133.15 233.61 132.04 233.57 130.9 C232.54 101.87 230.65 72.93 227.94 44.01 C214.45 44.01 188.21 72.1 177.88 81.01 Z " fill="#F7F5ED" transform="translate(386.05962085723877,-0.008630752563476563)"/>
</svg>
